<svg width="1531" height="577" xmlns="http://www.w3.org/2000/svg" xmlns:xlink="http://www.w3.org/1999/xlink" xml:space="preserve" overflow="hidden"><g transform="translate(-1475 -921)"><g><path d="M2243 967.5 2452.5 1072.25 2452.5 1348.75 2243 1453.5 2033.5 1348.75 2033.5 1072.25Z" stroke="#333F48" stroke-width="89.375" stroke-linecap="round" stroke-linejoin="round" stroke-miterlimit="10" stroke-opacity="1" fill="#333F48" fill-rule="evenodd" fill-opacity="1"/><path d="M2243 992.5 2431.5 1086.75 2431.5 1335.25 2243 1429.5 2054.5 1335.25 2054.5 1086.75Z" stroke="#333F48" stroke-width="89.375" stroke-linecap="round" stroke-linejoin="round" stroke-miterlimit="10" stroke-opacity="1" fill="#333F48" fill-rule="evenodd" fill-opacity="1"/><text fill="#FFFFFF" fill-opacity="1" font-family="Avenir Light,Avenir Light_MSFontService,sans-serif" font-style="normal" font-variant="normal" font-weight="300" font-stretch="normal" font-size="128" text-anchor="start" direction="ltr" writing-mode="lr-tb" unicode-bidi="normal" text-decoration="none" transform="matrix(1 0 0 1 2080.77 1250)">Heady</text><path d="M1734 967.5 1943.5 1072.25 1943.5 1348.75 1734 1453.5 1524.5 1348.75 1524.5 1072.25Z" stroke="#E13547" stroke-width="89.375" stroke-linecap="round" stroke-linejoin="round" stroke-miterlimit="10" stroke-opacity="1" fill="none" fill-rule="evenodd"/><path d="M1734 992.5 1922.5 1086.75 1922.5 1335.25 1734 1429.5 1545.5 1335.25 1545.5 1086.75Z" stroke="#FFFFFF" stroke-width="89.375" stroke-linecap="round" stroke-linejoin="round" stroke-miterlimit="10" stroke-opacity="1" fill="#FFFFFF" fill-rule="evenodd" fill-opacity="1"/><text fill="#E13547" fill-opacity="1" font-family="Avenir Light,Avenir Light_MSFontService,sans-serif" font-style="normal" font-variant="normal" font-weight="300" font-stretch="normal" font-size="128" text-anchor="start" direction="ltr" writing-mode="lr-tb" unicode-bidi="normal" text-decoration="none" transform="matrix(1 0 0 1 1639.53 1248)">Edi</text><path d="M2752 967.5 2961.5 1072.25 2961.5 1348.75 2752 1453.5 2542.5 1348.75 2542.5 1072.25Z" stroke="#16274A" stroke-width="89.375" stroke-linecap="round" stroke-linejoin="round" stroke-miterlimit="10" stroke-opacity="1" fill="none" fill-rule="evenodd"/><path d="M2752 992.5 2940.5 1086.75 2940.5 1335.25 2752 1429.5 2563.5 1335.25 2563.5 1086.75Z" stroke="#FFFFFF" stroke-width="89.375" stroke-linecap="round" stroke-linejoin="round" stroke-miterlimit="10" stroke-opacity="1" fill="#FFFFFF" fill-rule="evenodd" fill-opacity="1"/><text fill="#16274A" fill-opacity="1" font-family="Avenir Light,Avenir Light_MSFontService,sans-serif" font-style="normal" font-variant="normal" font-weight="300" font-stretch="normal" font-size="128" text-anchor="start" direction="ltr" writing-mode="lr-tb" unicode-bidi="normal" text-decoration="none" transform="matrix(1 0 0 1 2602.37 1255)">Track</text></g></g></svg>